<svg xmlns="http://www.w3.org/2000/svg" width="184" height="122" viewBox="0 0 184 122">
  <g id="グループ_21" data-name="グループ 21" transform="translate(-8876.121 -1537.389)">
    <g id="グループ_20" data-name="グループ 20" transform="translate(8908.319 1559.859)">
      <g id="グループ_9" data-name="グループ 9" transform="translate(1.986)">
        <path id="パス_34" data-name="パス 34" d="M332.741,471.245" transform="translate(-284.436 -449.19)" fill="#541b86"/>
        <g id="グループ_8" data-name="グループ 8" transform="translate(0)">
          <path id="パス_35" data-name="パス 35" d="M288.907,454.083h-5.793c-.933,0-.99.25-.673,1.1a4.7,4.7,0,0,1,.441,2.032v5.772a.65.65,0,0,1-.4.7,3.983,3.983,0,0,1-2.14.492c-3.393,0-6.792-2.6-6.792-8.723,0-5.06,3.566-8.077,9.212-8.077a11.135,11.135,0,0,1,5.415,1.292c.587.3.687.307.687-.438v-5.421c0-.362-.169-.454-.687-.691a15.375,15.375,0,0,0-6.626-1.215c-4.486,0-15.254,2.19-15.254,14.092s9.438,13.7,14.668,13.7a25.541,25.541,0,0,0,8.066-1.383c.568-.278.831-.35.831-1.2V455.075C289.861,454.083,290.02,454.083,288.907,454.083Z" transform="translate(-266.296 -440.908)" fill="#541b86"/>
          <path id="パス_36" data-name="パス 36" d="M345.955,446.963a12.592,12.592,0,0,0-9.889,4.271c-.018.018-.035.031-.055.055-.212.255-.433.5-.659,0-.648-1.433-2.02-4.366-9.824-4.366a30.505,30.505,0,0,0-13.921,3.661c-.627.359-.8.479-.8-.143v-2.384c0-.755-.461-.692-1.053-.692h-5.705c-.768,0-.8.441-.621.943a9.735,9.735,0,0,1,.518,3.022v17.642c0,.709.153.834.6.834h5.564c.562,0,.7-.282.7-.66v-5.425a11.479,11.479,0,0,1,.98-5.409c1.625-3.2,7.193-7.737,13.045-7.737,4.119,0,6.119,2.688,6.119,8.1,0,4.869-1.927,6.844-5.026,6.844a3.236,3.236,0,0,1-3.467-2.769,3.615,3.615,0,0,1,3.492-4.536,4.853,4.853,0,0,1,2.544.678c.355.193.475.149.421-.176-.1-.592-.27-1.711-.558-2.845-.142-.555-.206-.7-.651-.9a5.059,5.059,0,0,0-2.023-.414c-4.816,0-9.912,3.247-9.912,8.846,0,4.941,3.616,6.812,8.125,6.812a13.885,13.885,0,0,0,6.65-1.743c.411-.26.5-.335.5.358v5.615c0,.839.079.923.867.923h4.335c.709,0,.828.085.828-.882v-7.292c0-10.152,3.8-15.7,7.679-15.7,2.521,0,4.12,2.435,4.12,6.957,0,4.084-1.647,6.139-4.038,6.139-2.5,0-3.413-1.174-3.914-2.162-.145-.288-.315-.285-.491.125-.334.78-1.184,2.9-1.489,3.723a.857.857,0,0,0,.115.92c1.269,1.927,3.78,3.013,6.949,3.013,5.753,0,9.374-4.867,9.374-11.162C355.381,450.235,350.842,446.963,345.955,446.963Z" transform="translate(-276.408 -442.549)" fill="#541b86"/>
          <path id="パス_37" data-name="パス 37" d="M396.155,465.275a15.45,15.45,0,0,1-6.069.925c-4.1,0-7.409-2.265-7.409-7.384,0-4.67,2.523-7.3,5.281-7.3,2.523,0,4.019,1.314,4.019,3.442,0,2.265-1.186,3.106-2.364,3.106a3.217,3.217,0,0,1-2.52-1.344c-.339-.529-.46-.531-.712,0-.472,1.008-.989,2.348-1.25,3.093-.226.639-.23.723.274,1.411.8,1.091,2.712,2.3,5.627,2.3,5.228,0,7.489-4.057,7.489-7.555,0-5.274-3.747-8.981-10.168-8.981-6.007,0-11.35,4.207-11.35,10.911,0,7.639,3.942,12.506,12.769,12.506a14.73,14.73,0,0,0,5.281-.754c.393-.169.44-.256.624-.784.237-.672.624-1.952.952-3.162C396.76,465.215,396.513,465.109,396.155,465.275Z" transform="translate(-296.521 -442.565)" fill="#541b86"/>
        </g>
      </g>
      <g id="グループ_10" data-name="グループ 10" transform="translate(1.963 20.42)">
        <path id="パス_38" data-name="パス 38" d="M282.522,499.023c-5.584-1.727-7.389-2.488-7.389-4.461,0-1.562,2.231-3.156,7.263-3.156a15.953,15.953,0,0,1,9.441,2.626c.39.294.661.209.661-.29v-6.706c0-.473-.189-.616-.775-.9-.869-.417-4.126-1.931-10.578-1.931-7.562,0-14.881,2.769-14.881,9.848,0,6.37,5.045,7.739,10.969,9.608,3.868,1.218,8.131,2.2,8.131,4.356,0,1.852-1.353,2.882-7.17,2.882a27.046,27.046,0,0,1-10.482-2.456c-.584-.324-.781-.234-.781.224v4.513c0,.721.1.8.852,1.067.981.345,4.663,1.928,13.028,1.928,8.25,0,13.3-3.215,13.3-8.152S289.619,501.217,282.522,499.023Z" transform="translate(-266.264 -473.15)" fill="#541b86"/>
        <path id="パス_39" data-name="パス 39" d="M406.852,478.6c-.744-.161-4.142-.753-6.374,1.053-2.957,2.391-1.966,4.016-2.6,4.126-.1-.067-.19-.332-.181-.723.083-3.679,1.867-5.559,3.417-7.867,1.5-2.235,2.1-5.434.023-6.076a2.259,2.259,0,0,0-2.941,1.57c-.035.284.1.417.2.147a2.113,2.113,0,0,1,2.477-1.382c1.621.389,1.327,3.213-.272,5.505-2.033,2.919-3.28,4.089-3.514,7.138a15.556,15.556,0,0,0-.88-2.72,1.187,1.187,0,0,1-.081-.848,3.312,3.312,0,0,0-.105-2.971c-.492-.966-.534-.721-.6,0-.051.587-.089.345-.276.015a6.015,6.015,0,0,0-2.234-2.234c-.723-.43.225,1.25.135,1.924-.284,2.131.022,3.144,1.493,3.88a2.262,2.262,0,0,1,.755.771,4.4,4.4,0,0,1,.727,3.058c-.041.223-.238.38-.441.109l-.008-.007a2.3,2.3,0,0,1-.443-1.074c-.414-2.472-3.877-4.1-8.283-3.887-1.44.068-.981.343-.568,1.2,2.247,4.627,5.506,7.141,7.989,5.615.809-.5,1.876-.366,1.578.606-.8,2.607-3.309,4.813-7.348,6.387-2.022-6.208-7-9.885-13.55-10.69-1.74-.212-3.809-.354-5.836-.421-1.65-.055-3.268-.062-4.66-.02h-4.89c-.878,0-.912.5-.711,1.079a11.233,11.233,0,0,1,.568,2.789v9.834c-5.808-.014-13.042-.034-20.116-.065.525-6,5.1-8.027,9.949-8.027a8.079,8.079,0,0,1,3.6.639c.323.139.52.128.664-.254.547-1.458.983-3.725,1.267-4.636.125-.4.1-.625-.159-.728a25.926,25.926,0,0,0-7.46-.563c-7.568.368-15.59,3.894-16.186,13.526-6.624-.037-12.457-.086-15.944-.147-.318-.007-.493-.037-.47-.233.7-5.671,5.17-7.6,9.9-7.6a8.076,8.076,0,0,1,3.6.639c.324.139.52.128.665-.254.547-1.458.982-3.725,1.266-4.636.125-.4.1-.625-.159-.728a25.929,25.929,0,0,0-7.46-.563c-7.865.382-16.226,4.173-16.226,14.684,0,11.614,7.389,16.092,17.036,16.5a40.3,40.3,0,0,0,6.373-.125c.451-.073.558-.257.659-.647a24.839,24.839,0,0,0,.622-2.6c.065-.457-.067-.473-.665-.447a44.2,44.2,0,0,1-4.5-.032c-5.477-.429-9.233-2.3-10.622-7.422-.07-.282.014-.4.387-.416.67-.031,7.294-.249,15.874-.549,1.626,8.469,8.288,11.885,16.649,12.24a40.322,40.322,0,0,0,6.375-.125c.452-.073.559-.257.658-.647a24.281,24.281,0,0,0,.623-2.6c.065-.457-.066-.473-.664-.447a44.2,44.2,0,0,1-4.5-.032c-5.9-.463-9.807-2.6-10.9-8.678,6.725-.242,13.829-.507,19.852-.758v11.427c0,1.1.425,1.469,1.43,1.56a80.226,80.226,0,0,0,8.264.278c.466,0,.958,0,1.485,0,10.793,0,18.887-2.931,18.887-13.443a23.559,23.559,0,0,0-.307-3.849c4.629-2.077,7.2-5.108,8.326-9.347.2-.728.581-.872,1.225-.5,4.026,2.3,7.317-2.709,8.783-5.346C408.016,478.628,407.6,478.757,406.852,478.6ZM367.1,487.436c0-.505.38-.674,1.061-.674.3,0,.625.005.963.015a17.983,17.983,0,0,1,6.858,1.279,9.28,9.28,0,0,1,4.882,5.782,66.07,66.07,0,0,1-9.736.662l-4.028,0Zm14.481,11.6c0,4.576-2.977,9.129-9.93,9.129h-3.49c-.909,0-1.061-.156-1.061-1.1V498.4c1.261-.061,2.395-.119,3.367-.174a86.912,86.912,0,0,0,11.017-1.235Q381.575,497.979,381.577,499.033Z" transform="translate(-277.159 -468.997)" fill="#541b86"/>
      </g>
      <g id="グループ_11" data-name="グループ 11" transform="translate(0 28.353)">
        <path id="パス_40" data-name="パス 40" d="M264.449,480.28h-.885v-.371h2.263v.371h-.885v1.984h-.494Z" transform="translate(-263.564 -479.909)" fill="#541b86"/>
        <path id="パス_41" data-name="パス 41" d="M267.349,479.909h.712l.824,1.828.819-1.828h.7v2.355h-.465l.02-1.944h-.007l-.87,1.944h-.423l-.863-1.944h-.007l.02,1.944h-.464Z" transform="translate(-264.597 -479.909)" fill="#541b86"/>
      </g>
      <g id="グループ_19" data-name="グループ 19" transform="translate(2.899 66.956)">
        <g id="グループ_14" data-name="グループ 14" transform="translate(0)">
          <g id="グループ_13" data-name="グループ 13">
            <g id="グループ_12" data-name="グループ 12">
              <path id="パス_42" data-name="パス 42" d="M272.666,533.009c-2.824,0-5.114,1.927-5.114,4.3a3.6,3.6,0,0,0,1.469,2.965.432.432,0,0,0,.619-.06c.143-.2.046-.415-.188-.626a2.928,2.928,0,0,1-1.012-2.277c0-1.967,1.892-3.558,4.226-3.558s4.227,1.591,4.227,3.558a2.875,2.875,0,0,1-1.011,2.255c-.236.213-.332.443-.19.648a.433.433,0,0,0,.619.06,3.6,3.6,0,0,0,1.469-2.965C277.781,534.936,275.491,533.009,272.666,533.009Z" transform="translate(-267.552 -533.009)" fill="#541b86"/>
              <path id="パス_43" data-name="パス 43" d="M276.391,538.117a2.926,2.926,0,0,0-5.772,0,2.344,2.344,0,0,0,1.154,1.956c-.122.475-.544,2.347-.675,3.175a.363.363,0,0,0,.213.452c.116.041.284.033.454-.21.454-.712,1.425-2.656,1.554-2.932l.185,0,.163,0c.132.3,1.093,2.169,1.551,2.932.153.254.339.251.453.21s.241-.158.217-.453c-.1-.781-.549-2.665-.675-3.16A2.351,2.351,0,0,0,276.391,538.117Zm-2.887,1.346a1.35,1.35,0,1,1,1.442-1.346A1.4,1.4,0,0,1,273.5,539.464Z" transform="translate(-268.389 -533.736)" fill="#541b86"/>
            </g>
          </g>
        </g>
        <g id="グループ_18" data-name="グループ 18" transform="translate(17.12 2.302)">
          <g id="グループ_15" data-name="グループ 15" transform="translate(33.723 0.353)">
            <path id="パス_44" data-name="パス 44" d="M337.488,536.8h3.436v.862h-2.573v1.484h2.543v.775h-2.543v2.3h-.863Z" transform="translate(-337.488 -536.701)" fill="#541b86"/>
            <path id="パス_45" data-name="パス 45" d="M345.625,542.289c-1.747,0-2.286-1.461-2.286-2.975,0-1.454.708-2.652,2.286-2.652s2.287,1.2,2.287,2.652C347.913,540.828,347.372,542.289,345.625,542.289Zm0-4.72c-1.148,0-1.425.892-1.425,1.856s.256,2.09,1.425,2.09,1.425-1.125,1.425-2.09S346.773,537.569,345.625,537.569Z" transform="translate(-339.085 -536.662)" fill="#541b86"/>
            <path id="パス_46" data-name="パス 46" d="M351.077,536.8h2.338a1.383,1.383,0,0,1,1.52,1.5,1.421,1.421,0,0,1-1.506,1.558h-.264l1.835,2.36H353.92l-1.966-2.668h-.015v2.668h-.861Zm.861,2.462h1.031c.642,0,1.1-.1,1.1-.855,0-.512-.38-.746-.855-.746h-1.28Z" transform="translate(-341.198 -536.701)" fill="#541b86"/>
          </g>
          <g id="グループ_16" data-name="グループ 16">
            <path id="パス_47" data-name="パス 47" d="M312.323,536.818h1V541.5H317.5v.723h-5.177Z" transform="translate(-296.895 -536.351)" fill="#541b86"/>
            <path id="パス_48" data-name="パス 48" d="M291.1,536.8h3.291v.862h-2.429v1.484h2.429v.775h-2.429v1.529h2.429v.775H291.1Z" transform="translate(-291.101 -536.347)" fill="#541b86"/>
            <path id="パス_49" data-name="パス 49" d="M297.383,536.8h1.382l2.171,4.386h.015V536.8h.864v5.426h-1.221l-2.333-4.739h-.015v4.739h-.861Z" transform="translate(-292.816 -536.347)" fill="#541b86"/>
            <path id="パス_50" data-name="パス 50" d="M308.159,540.173a1.833,1.833,0,0,0-.154-.765h1.018v1.974a2.049,2.049,0,0,1-1.762.907c-1.749,0-2.289-1.462-2.289-2.976,0-1.454.708-2.654,2.289-2.654a2.147,2.147,0,0,1,1.594.644v1.178a1.731,1.731,0,0,0-1.594-.915c-.723,0-1.426.482-1.426,1.857,0,.966.257,2.091,1.426,2.091a1.269,1.269,0,0,0,.9-.3Z" transform="translate(-294.888 -536.308)" fill="#541b86"/>
            <path id="パス_51" data-name="パス 51" d="M317.194,539.39v-3.214h1.01v4.254H317.1A6.746,6.746,0,0,0,317.194,539.39Z" transform="translate(-298.199 -536.176)" fill="#541b86"/>
            <path id="パス_52" data-name="パス 52" d="M320.77,540.622a1.863,1.863,0,0,0,1.491.892.862.862,0,0,0,.885-.877c0-1.206-2.5-.366-2.5-2.31a1.668,1.668,0,0,1,1.748-1.668,2,2,0,0,1,1.373.563v1.141a1.787,1.787,0,0,0-1.365-.84.8.8,0,0,0-.892.738c0,1.2,2.456.242,2.456,2.369a1.621,1.621,0,0,1-1.658,1.66,2.381,2.381,0,0,1-1.536-.606Z" transform="translate(-299.167 -536.308)" fill="#541b86"/>
            <path id="パス_53" data-name="パス 53" d="M326.735,536.8h.864v2.179h2.3V536.8h.864v5.426h-.864v-2.384h-2.3v2.384h-.864Z" transform="translate(-300.83 -536.347)" fill="#541b86"/>
          </g>
          <g id="グループ_17" data-name="グループ 17" transform="translate(50.603 0.353)">
            <path id="パス_54" data-name="パス 54" d="M375.5,541.084V536.8h.944v5.425H375.4A6.226,6.226,0,0,0,375.5,541.084Z" transform="translate(-364.72 -536.701)" fill="#541b86"/>
            <path id="パス_55" data-name="パス 55" d="M364.751,541.574a2.338,2.338,0,0,1-1.755.715c-1.746,0-2.289-1.461-2.289-2.975,0-1.454.71-2.652,2.289-2.652a2.313,2.313,0,0,1,1.755.68v1.176l-.03-.015a1.7,1.7,0,0,0-1.681-.935c-.855,0-1.469.584-1.469,1.929,0,1.141.5,2.017,1.476,2.017a1.805,1.805,0,0,0,1.7-1.1Z" transform="translate(-360.708 -536.662)" fill="#541b86"/>
            <path id="パス_56" data-name="パス 56" d="M367.886,536.8h.861v2.177h2.3V536.8h.861v5.423h-.861v-2.383h-2.3v2.383h-.861Z" transform="translate(-362.668 -536.701)" fill="#541b86"/>
            <path id="パス_57" data-name="パス 57" d="M390.345,536.8h2.338a1.383,1.383,0,0,1,1.52,1.5,1.421,1.421,0,0,1-1.506,1.558h-.262l1.833,2.36h-1.081l-1.966-2.668h-.015v2.668h-.862Zm.862,2.462h1.031c.643,0,1.1-.1,1.1-.855,0-.512-.38-.746-.855-.746h-1.279Z" transform="translate(-368.799 -536.701)" fill="#541b86"/>
            <path id="パス_58" data-name="パス 58" d="M397.138,536.8h3.288v.862H398v1.484h2.427v.775H398v1.527h2.427v.775h-3.288Z" transform="translate(-370.654 -536.701)" fill="#541b86"/>
            <path id="パス_59" data-name="パス 59" d="M403.4,536.8h1.381l2.171,4.384h.015V536.8h.863v5.423h-1.221l-2.331-4.736h-.014v4.736H403.4Z" transform="translate(-372.363 -536.701)" fill="#541b86"/>
            <path id="パス_60" data-name="パス 60" d="M378.95,536.8h1v4.7h5.745v.724H378.95Z" transform="translate(-365.688 -536.7)" fill="#541b86"/>
            <path id="パス_61" data-name="パス 61" d="M383.114,536.8h2.07c1.09,0,1.933.443,1.933,1.812,0,1.116-.7,2.1-2.436,2.1h-1.567Zm.862,3.171h.863c1.062,0,1.4-.588,1.4-1.255s-.3-1.051-1.275-1.051h-.991Z" transform="translate(-366.825 -536.699)" fill="#541b86"/>
          </g>
        </g>
      </g>
    </g>
    <rect id="長方形_10" data-name="長方形 10" width="184" height="122" transform="translate(8876.121 1537.389)" fill="none"/>
  </g>
</svg>
