<?xml version="1.0" encoding="utf-8"?>
<!-- Generator: Adobe Illustrator 25.4.1, SVG Export Plug-In . SVG Version: 6.00 Build 0)  -->
<svg version="1.1" id="グループ_22" xmlns="http://www.w3.org/2000/svg" xmlns:xlink="http://www.w3.org/1999/xlink" x="0px"
	 y="0px" viewBox="0 0 1112 834" style="enable-background:new 0 0 1112 834;" xml:space="preserve">
<style type="text/css">
	.st0{fill:#F2F2F2;}
	.st1{clip-path:url(#SVGID_00000150096483095532945010000017512921045693308290_);}
	.st2{opacity:0.18;fill:#90C31F;}
	.st3{opacity:9.000000e-02;fill:#541B86;}
</style>
<rect id="長方形_6" y="0" class="st0" width="1112" height="834"/>
<g>
	<defs>
		<rect id="SVGID_1_" y="0" width="1112" height="834"/>
	</defs>
	<clipPath id="SVGID_00000113337682328712987960000004885037687358859438_">
		<use xlink:href="#SVGID_1_"  style="overflow:visible;"/>
	</clipPath>
	<g id="マスクグループ_1" style="clip-path:url(#SVGID_00000113337682328712987960000004885037687358859438_);">
		<path id="パス_75" class="st2" d="M1239.5,794.2c-40.5,0-86.6,0-102.8,0s-24.1-2.2-34-17.8c-10.5-16.6-24.6-30.4-41.5-32.2V834
			h-7.7v-89.9c-16.9,1.8-31,15.6-41.5,32.2c-9.9,15.6-17.8,17.8-34,17.8s-62.3,0-102.8,0c-39.7,0-47.9-27.2-32.5-54.2
			c6.3-11,19.4-34.3,25.5-45c8.5-15,18.9-16.9,34.3-12.6c5.5,1.6,13,3.7,18.5,5.2c13.3,3.8,10.8,10.2,18.6,14.6c7.4,4.1,16,0.6,18-6
			s-3.5-14.2-12-14.6c-9-0.5-10.4,6.5-23.7,2.7c-5.5-1.6-13-3.7-18.4-5.3c-15.4-4.4-17.7-15-9.2-30l31.6-55.8
			c9.4-16.5,20.8-18.7,35.5-10.3c5.8,3.3,15.8,8.9,21.6,12.2c14.1,8,9.6,14.4,17.3,21.6c7.3,6.8,18.2,5.2,22.2-1.8
			c4-7-0.1-17.2-9.6-20.1c-10.1-3.1-13.5,4.3-27.6-3.7c-5.8-3.3-15.8-9-21.6-12.3c-14.8-8.4-18.8-19.3-9.4-35.8
			c10.8-19,44.5-75.7,55.9-92.1c19.5-28,34.5-33.8,47.4-33.8c12.9,0,27.5,5.3,47.4,33.8c11.4,16.4,45.1,73.1,55.9,92.1
			c9.4,16.5,5.4,27.4-9.4,35.8c-5.8,3.3-15.8,9-21.6,12.3c-14.1,8-17.5,0.7-27.6,3.7c-9.5,2.9-13.6,13.1-9.6,20.1
			c4,7,14.9,8.6,22.2,1.8c7.8-7.2,3.2-13.6,17.4-21.6c5.8-3.3,15.8-8.9,21.6-12.2c14.8-8.4,26.2-6.2,35.5,10.3l31.6,55.8
			c8.5,15,6.1,25.6-9.2,30c-5.5,1.6-13,3.7-18.5,5.3c-13.3,3.8-14.7-3.2-23.7-2.7c-8.4,0.5-13.9,8.1-12,14.6c1.9,6.6,10.6,10.1,18,6
			c7.9-4.4,5.3-10.8,18.6-14.6c5.5-1.6,13-3.7,18.4-5.2c15.4-4.4,25.8-2.4,34.3,12.6c6.1,10.7,19.2,33.9,25.5,45
			C1287.3,767,1279.2,794.2,1239.5,794.2z M1221.7,750.3l-156.8-45.6l113.6-73.6c1.5-1,1.9-3,1-4.5c-1-1.5-3-1.9-4.5-1l-114.5,74.2
			V475.5c0-1.8-1.5-3.2-3.2-3.2s-3.2,1.5-3.2,3.2v224.5l-114.5-74.2c-1.5-1-3.5-0.5-4.5,1c-0.9,1.5-0.5,3.5,0.9,4.4l113.6,73.6
			l-156.8,45.6c-1.7,0.5-2.7,2.3-2.2,4s2.3,2.7,4,2.2l0,0l162.7-47.3l162.7,47.3c1.7,0.5,3.5-0.5,4-2.2
			C1224.4,752.6,1223.4,750.8,1221.7,750.3L1221.7,750.3z"/>
		<path id="パス_76" class="st3" d="M220.4,62.9L220.4,62.9c-10.7,0-21.1,3.3-29.9,9.3c-17.5,11.8-29.3,33.8-29.3,58.9
			c-0.1,13.7,3.6,27.3,10.7,39.1c-3.5-0.8-7.1-1.1-10.7-1.1h0c-2.7,0-5.4,0.2-8.1,0.7c-0.9,0.1-1.8,0.3-2.6,0.5
			c6-10,9.6-21.4,10.4-33.1c0.1-2,0.2-4,0.2-6c0-1.1,0-2.3-0.1-3.4c0-0.4-0.1-0.8-0.1-1.2c0-0.7-0.1-1.5-0.1-2.2
			c0-0.5-0.1-0.9-0.1-1.4c-0.1-0.6-0.1-1.3-0.2-1.9c-0.1-0.5-0.1-1-0.2-1.5c-0.1-0.6-0.2-1.2-0.3-1.8c-0.1-0.5-0.2-1-0.3-1.5
			c-0.1-0.6-0.2-1.1-0.3-1.7c-0.1-0.5-0.2-1-0.4-1.6s-0.2-1-0.4-1.6c-0.1-0.5-0.3-1.1-0.4-1.6c-0.1-0.5-0.3-1-0.4-1.5
			c-0.2-0.5-0.3-1.1-0.5-1.6c-0.1-0.5-0.3-0.9-0.5-1.4c-0.2-0.6-0.4-1.1-0.6-1.6c-0.2-0.4-0.3-0.9-0.5-1.3c-0.2-0.6-0.5-1.1-0.7-1.6
			c-0.2-0.4-0.3-0.8-0.5-1.2c-0.2-0.6-0.5-1.1-0.8-1.6c-0.2-0.4-0.4-0.8-0.5-1.1c-0.3-0.6-0.6-1.1-0.9-1.6c-0.2-0.3-0.4-0.7-0.6-1
			c-0.3-0.6-0.6-1.1-1-1.6c-0.2-0.3-0.4-0.6-0.6-1c-0.3-0.6-0.7-1.1-1-1.6c-0.2-0.3-0.4-0.6-0.6-0.9c-0.4-0.5-0.7-1.1-1.1-1.6
			c-0.2-0.3-0.4-0.5-0.6-0.8c-0.4-0.5-0.8-1.1-1.2-1.6c-0.2-0.2-0.4-0.5-0.6-0.7c-0.4-0.5-0.9-1-1.3-1.6c-0.2-0.2-0.4-0.4-0.6-0.7
			c-0.5-0.5-0.9-1-1.4-1.5c-0.2-0.2-0.4-0.4-0.6-0.6c-0.5-0.5-1-1-1.5-1.5c-0.2-0.2-0.4-0.4-0.6-0.5c-0.5-0.5-1.1-1-1.6-1.4
			c-0.2-0.2-0.4-0.3-0.5-0.5c-0.6-0.5-1.1-0.9-1.7-1.4c-0.2-0.1-0.4-0.3-0.5-0.4c-0.6-0.5-1.2-0.9-1.8-1.3c-0.2-0.1-0.3-0.2-0.5-0.4
			c-0.6-0.4-1.2-0.8-1.9-1.2c-0.2-0.1-0.3-0.2-0.5-0.3c-0.6-0.4-1.3-0.8-1.9-1.2c-0.2-0.1-0.3-0.2-0.5-0.3c-0.7-0.4-1.3-0.7-2-1.1
			c-0.2-0.1-0.3-0.2-0.5-0.2c-0.7-0.3-1.4-0.7-2.1-1c-0.2-0.1-0.3-0.1-0.5-0.2c-0.7-0.3-1.4-0.6-2.1-0.9c-0.2-0.1-0.3-0.1-0.5-0.2
			c-0.7-0.3-1.5-0.5-2.2-0.8l-0.5-0.1c-0.7-0.2-1.5-0.4-2.2-0.6l-0.5-0.1c-0.8-0.2-1.5-0.4-2.3-0.5c-0.2,0-0.3-0.1-0.5-0.1
			c-0.8-0.2-1.5-0.3-2.3-0.4c-0.2,0-0.3,0-0.5-0.1c-0.8-0.1-1.6-0.2-2.3-0.3l-0.2,0h-0.1c-0.3,0-0.6,0-0.9-0.1v-81.3h-7.3V63
			c-0.3,0-0.6,0-0.9,0.1h-0.1l-0.2,0c-0.8,0.1-1.6,0.2-2.3,0.3c-0.2,0-0.3,0-0.5,0.1c-0.8,0.1-1.6,0.3-2.3,0.4
			c-0.2,0-0.3,0.1-0.5,0.1c-0.8,0.2-1.5,0.3-2.3,0.5l-0.5,0.1c-0.8,0.2-1.5,0.4-2.2,0.6l-0.5,0.1c-0.7,0.2-1.5,0.5-2.2,0.8
			c-0.2,0.1-0.3,0.1-0.5,0.2c-0.7,0.3-1.4,0.6-2.1,0.9c-0.2,0.1-0.3,0.1-0.5,0.2c-0.7,0.3-1.4,0.6-2.1,1c-0.2,0.1-0.3,0.2-0.5,0.2
			c-0.7,0.3-1.3,0.7-2,1.1c-0.2,0.1-0.3,0.2-0.5,0.3c-0.7,0.4-1.3,0.8-1.9,1.2c-0.2,0.1-0.3,0.2-0.5,0.3c-0.6,0.4-1.2,0.8-1.9,1.2
			c-0.2,0.1-0.3,0.2-0.5,0.4c-0.6,0.4-1.2,0.9-1.8,1.3c-0.2,0.1-0.4,0.3-0.5,0.4c-0.6,0.4-1.1,0.9-1.7,1.4c-0.2,0.2-0.4,0.3-0.5,0.5
			c-0.5,0.5-1.1,1-1.6,1.4c-0.2,0.2-0.4,0.4-0.6,0.5c-0.5,0.5-1,1-1.5,1.5c-0.2,0.2-0.4,0.4-0.6,0.6c-0.5,0.5-1,1-1.4,1.5
			c-0.2,0.2-0.4,0.4-0.6,0.7c-0.4,0.5-0.9,1-1.3,1.6c-0.2,0.2-0.4,0.5-0.6,0.7c-0.4,0.5-0.8,1.1-1.2,1.6c-0.2,0.3-0.4,0.5-0.6,0.8
			c-0.4,0.5-0.8,1.1-1.1,1.6c-0.2,0.3-0.4,0.6-0.6,0.9c-0.4,0.5-0.7,1.1-1,1.6c-0.2,0.3-0.4,0.6-0.6,1c-0.3,0.5-0.6,1.1-1,1.6
			c-0.2,0.3-0.4,0.7-0.6,1c-0.3,0.5-0.6,1.1-0.9,1.6c-0.2,0.4-0.4,0.8-0.5,1.1c-0.3,0.5-0.5,1.1-0.8,1.6c-0.2,0.4-0.3,0.8-0.5,1.2
			c-0.2,0.5-0.5,1.1-0.7,1.6c-0.2,0.4-0.3,0.9-0.5,1.3c-0.2,0.5-0.4,1.1-0.6,1.6c-0.2,0.5-0.3,0.9-0.5,1.4c-0.2,0.5-0.4,1.1-0.5,1.6
			c-0.1,0.5-0.3,1-0.4,1.5c-0.1,0.5-0.3,1.1-0.4,1.6c-0.1,0.5-0.3,1-0.4,1.6s-0.3,1-0.4,1.6c-0.1,0.6-0.2,1.1-0.3,1.7
			c-0.1,0.5-0.2,1-0.3,1.5c-0.1,0.6-0.2,1.2-0.3,1.8c-0.1,0.5-0.2,1-0.2,1.5c-0.1,0.6-0.1,1.3-0.2,1.9c0,0.5-0.1,0.9-0.1,1.4
			c-0.1,0.7-0.1,1.5-0.1,2.2c0,0.4-0.1,0.8-0.1,1.2c0,1.1-0.1,2.2-0.1,3.4c0,7,0.9,13.9,2.8,20.6c0,0.1,0,0.1,0.1,0.2
			c0,0.2,0.1,0.4,0.2,0.5c1.8,6.2,4.3,12.2,7.7,17.7c-0.9-0.2-1.9-0.4-2.8-0.5c-2.6-0.4-5.3-0.6-7.9-0.6h0c-3.6,0-7.2,0.4-10.7,1.1
			c7.1-11.8,10.7-25.3,10.7-39.1c0-25.3-12-47.4-29.8-59.2c-8.7-5.9-19-9-29.5-9.1l0,0c-32.7,0-59.2,30.6-59.2,68.2
			s26.5,68.3,59.2,68.3l0,0c3.6,0,7.2-0.4,10.7-1.1c-7.1,11.8-10.7,25.3-10.7,39.1c0,37.7,26.5,68.3,59.2,68.3h0
			c5.1,0,10.2-0.8,15.1-2.2c-0.6,0.8-1.2,1.5-1.7,2.3c-8.8,12.7-13.5,27.7-13.3,43.1c-0.1,13.4,3.4,26.6,10.1,38.2
			c10.6,18.2,28.7,30.1,49.1,30.1l0,0c19.9,0,37.5-11.4,48.3-28.8c15.4-25.6,14.5-57.9-2.4-82.6c-0.6-0.8-1.1-1.6-1.7-2.3
			c4.9,1.5,10,2.2,15.1,2.2h0c32.7,0,59.2-30.6,59.2-68.3c0.1-13.7-3.6-27.3-10.7-39.1c3.5,0.8,7.1,1.1,10.7,1.1l0,0
			c32.7,0,59.2-30.6,59.2-68.3S253.1,62.9,220.4,62.9z M101.8,280.5L101.8,280.5c-5.1,0-10.2,0.8-15.1,2.3c9.9-13.1,15.2-29,15-45.4
			c0.1-13.7-3.6-27.3-10.7-39.1c3.5,0.8,7.1,1.1,10.7,1.1l0,0c3.6,0,7.2-0.4,10.7-1.1c-7.1,11.8-10.7,25.3-10.7,39.1
			c-0.1,16.4,5.1,32.4,15,45.4C112,281.3,106.9,280.5,101.8,280.5z"/>
	</g>
</g>
</svg>
